<?xml version="1.0" standalone="no"?>
<!DOCTYPE svg PUBLIC "-//W3C//DTD SVG 20010904//EN"
 "http://www.w3.org/TR/2001/REC-SVG-20010904/DTD/svg10.dtd">
<svg version="1.0" xmlns="http://www.w3.org/2000/svg"
 width="762.000000pt" height="407.000000pt" viewBox="0 0 762.000000 407.000000"
 preserveAspectRatio="xMidYMid meet">
<metadata>
Created by potrace 1.16, written by Peter Selinger 2001-2019
</metadata>
<g transform="translate(0.000000,407.000000) scale(0.100000,-0.100000)"
fill="#E0E0E0" stroke="none">
<path d="M3460 3676 c-36 -8 -105 -22 -155 -31 -49 -10 -164 -33 -255 -51 -91
-18 -201 -40 -245 -49 -113 -22 -181 -43 -195 -60 -8 -10 -10 -31 -7 -58 3
-23 13 -91 22 -152 9 -60 25 -180 36 -265 10 -85 33 -220 49 -300 16 -80 39
-201 50 -270 10 -69 22 -141 26 -161 8 -44 7 -44 -157 -58 -143 -12 -146 -15
-141 -89 5 -71 6 -70 -128 -124 -216 -88 -219 -89 -535 -87 -282 1 -283 1
-289 23 -11 46 -26 377 -26 602 l-1 235 -87 101 -87 101 -120 -6 c-66 -4 -237
-11 -380 -17 -143 -6 -270 -15 -282 -20 -15 -6 -24 -21 -29 -47 -7 -42 -99
-408 -116 -463 -12 -41 -32 -95 -60 -165 -17 -43 -20 -81 -24 -280 -3 -126 -7
-235 -9 -242 -2 -6 -14 -13 -27 -15 -22 -3 -23 -6 -19 -76 2 -47 -1 -78 -9
-87 -23 -28 -4 -44 57 -47 l58 -3 3 -85 c3 -80 1 -86 -20 -95 -13 -5 -23 -17
-23 -25 0 -13 24 -15 152 -15 168 0 195 8 155 45 -23 22 -27 52 -16 133 6 45
7 45 48 49 l41 3 1 -95 c0 -73 5 -107 21 -148 35 -86 91 -159 147 -192 l51
-30 -191 0 c-197 0 -235 -7 -221 -42 6 -17 400 -23 2337 -33 1290 -7 2337 -14
2755 -20 182 -3 631 -5 999 -6 l670 -1 18 22 c23 28 23 47 1 54 -16 5 -1669
14 -2672 16 l-414 0 39 29 c56 40 92 86 128 161 28 58 31 75 32 164 l0 99 170
-2 169 -1 48 -49 c41 -43 47 -55 47 -93 1 -95 101 -143 169 -79 69 64 14 161
-91 161 -38 0 -122 66 -114 89 3 9 19 55 35 103 29 84 30 92 21 170 -6 46 -10
84 -10 85 0 1 -11 8 -25 15 l-25 13 23 28 22 29 130 -60 c72 -33 198 -92 280
-132 83 -40 236 -112 340 -160 105 -48 255 -119 335 -157 526 -251 751 -355
763 -350 8 3 23 25 34 49 11 24 55 117 98 208 43 91 111 236 152 323 40 87 96
201 122 253 44 84 47 96 34 109 -18 18 -31 12 -43 -21 -15 -39 20 -52 -505
183 -296 133 -654 295 -1225 553 -1038 470 -1177 533 -1379 622 -113 50 -210
94 -215 98 -5 5 9 16 30 25 64 27 94 62 94 111 0 71 -48 84 -90 24 -21 -29
-21 -29 -40 -10 -21 21 -56 26 -80 10 -11 -7 -19 -4 -31 12 -21 27 -105 33
-199 14z m90 -72 c0 -19 5 -44 10 -55 9 -17 7 -19 -17 -19 -15 0 -57 -7 -93
-15 -36 -9 -108 -24 -160 -35 -91 -18 -331 -75 -435 -102 -27 -8 -50 -18 -49
-23 7 -67 29 -202 40 -245 7 -30 16 -80 20 -110 6 -58 52 -245 84 -345 11 -33
33 -102 50 -153 16 -52 34 -111 40 -133 9 -32 21 -45 68 -75 63 -40 129 -105
158 -153 12 -20 34 -37 64 -48 25 -9 74 -33 110 -52 36 -19 99 -52 140 -72
l75 -38 -220 -2 c-275 -2 -275 -2 -306 20 -14 11 -50 24 -81 30 -33 7 -75 25
-99 43 -24 17 -55 31 -69 31 -22 0 -228 -80 -305 -119 -24 -12 -60 -14 -170
-12 -87 2 -132 6 -120 11 97 41 195 85 233 104 2 1 6 27 8 59 2 32 7 61 11 64
5 4 62 12 128 19 181 19 181 18 164 87 -27 117 -168 1048 -172 1139 l-2 59 45
12 c25 6 155 33 290 58 135 26 310 60 390 76 80 15 151 29 158 29 7 1 12 -12
12 -35z m120 -113 c0 -21 -300 -630 -346 -702 -30 -47 -26 -84 9 -95 12 -4 83
-36 157 -72 74 -35 214 -101 310 -147 96 -45 274 -130 395 -188 121 -57 268
-127 327 -155 l107 -51 -15 -30 c-12 -24 -13 -38 -5 -68 6 -21 11 -41 11 -45
0 -5 -184 -8 -408 -8 -474 0 -413 -11 -702 125 -125 59 -194 97 -213 118 -69
77 -105 111 -147 140 -62 43 -65 47 -105 177 -20 63 -43 133 -50 155 -24 69
-53 186 -79 320 -50 258 -65 348 -60 357 12 20 88 39 371 96 164 34 317 64
341 67 23 4 42 11 42 16 0 5 14 9 30 9 23 0 30 -5 30 -19z m172 -63 c65 -29
118 -59 118 -66 0 -7 -8 -31 -19 -55 -10 -23 -32 -73 -49 -112 -16 -38 -37
-71 -45 -73 -13 -3 -240 99 -257 115 -8 8 115 243 128 243 4 0 60 -23 124 -52z
m379 -172 c101 -46 276 -125 389 -176 113 -50 209 -95 213 -99 10 -10 -14 -82
-64 -188 l-38 -83 -98 46 c-54 25 -172 80 -263 121 -188 85 -443 205 -449 210
-5 4 56 136 80 173 9 14 19 37 23 53 3 15 10 27 15 27 4 0 91 -38 192 -84z
m-609 -85 c117 -51 218 -102 218 -111 0 -12 -139 -322 -149 -333 -10 -10 -281
118 -281 133 0 12 158 330 164 330 2 0 24 -8 48 -19z m375 -172 c49 -23 225
-104 393 -180 167 -77 308 -143 312 -147 4 -4 -31 -85 -78 -180 -74 -152 -87
-172 -104 -167 -11 4 -95 42 -188 86 -92 44 -185 89 -207 99 -236 110 -375
181 -375 192 -1 20 143 338 152 338 4 0 47 -19 95 -41z m-2650 -96 c15 -21 45
-58 66 -83 60 -70 67 -95 67 -249 0 -179 19 -616 29 -663 7 -33 6 -35 -11 -25
-10 7 -18 15 -18 19 0 4 -42 29 -92 54 -96 48 -221 89 -245 80 -41 -16 -41
-15 -38 422 1 229 3 429 4 444 1 32 12 35 128 37 l82 1 28 -37z m3846 -82
c144 -65 312 -140 372 -167 133 -58 137 -61 125 -82 -5 -10 -16 -39 -25 -67
-27 -85 -80 -180 -98 -177 -9 1 -67 27 -129 56 -123 59 -485 226 -585 271 -35
15 -63 34 -63 41 0 25 119 244 133 244 4 0 126 -53 270 -119z m-4121 97 c7
-20 10 -334 3 -327 -3 4 -8 35 -10 70 -6 100 -19 175 -35 194 -13 16 -33 17
-200 13 -102 -2 -194 -9 -204 -15 -17 -9 -19 -29 -23 -240 -3 -193 -1 -232 11
-242 26 -22 408 -2 432 22 4 3 9 44 11 92 3 47 10 88 14 91 5 3 10 -34 11 -83
1 -48 2 -111 3 -140 l1 -52 -39 -7 c-22 -3 -83 -3 -136 1 -158 12 -385 8 -424
-8 -30 -13 -35 -20 -40 -62 -10 -67 -9 -533 1 -539 12 -7 196 -10 212 -3 10 5
21 -3 32 -23 9 -16 24 -30 33 -30 8 0 15 -8 15 -19 0 -15 -11 -19 -77 -25 -42
-3 -136 -6 -208 -6 l-132 0 -7 39 c-7 49 -2 65 29 81 l25 13 0 226 c1 250 4
273 49 381 18 41 46 134 62 205 28 122 76 296 101 358 10 25 15 27 67 28 50 1
305 13 387 17 18 1 34 -4 36 -10z m-61 -94 c21 -12 29 -311 10 -381 -6 -24
-15 -29 -67 -40 -71 -15 -124 -16 -124 -4 0 5 -24 34 -52 64 -69 71 -131 152
-140 180 -9 31 -9 160 0 174 4 6 25 14 47 16 42 5 316 -3 326 -9z m2638 -134
c139 -66 276 -131 304 -144 29 -13 180 -84 337 -159 157 -74 400 -188 540
-255 266 -125 290 -137 740 -349 151 -72 385 -182 520 -246 135 -63 307 -145
383 -181 76 -36 141 -66 144 -66 17 0 113 -65 113 -76 0 -26 -33 -46 -66 -41
-31 5 -246 103 -592 268 -78 38 -164 78 -190 90 -78 36 -329 153 -472 221 -74
35 -226 106 -336 158 -196 90 -202 94 -213 130 -25 84 -113 131 -170 91 -16
-12 -31 -21 -34 -21 -7 0 -154 69 -427 200 -254 122 -347 166 -610 290 -260
122 -259 122 -265 138 -7 18 16 72 31 72 6 0 125 -54 263 -120z m1329 -141
c108 -49 226 -104 262 -120 263 -121 315 -147 313 -160 -2 -18 -133 -297 -154
-329 l-16 -24 -284 134 c-450 212 -490 232 -495 245 -3 7 27 78 65 160 39 81
71 150 71 154 0 10 22 31 33 31 4 0 97 -41 205 -91z m-4306 -7 c7 -11 37 -45
66 -77 29 -33 48 -63 44 -67 -5 -5 -40 -8 -78 -6 l-69 3 -3 83 c-2 67 0 82 12
82 8 0 21 -8 28 -18z m5504 -163 c219 -99 402 -184 407 -188 13 -13 -79 -238
-113 -274 -4 -5 -79 25 -166 66 -88 41 -238 111 -334 155 -298 137 -330 152
-330 162 0 16 122 260 130 260 4 0 186 -81 406 -181z m-5108 -126 c8 -11 12
-53 12 -120 l0 -103 -32 0 c-70 0 -206 -88 -288 -185 -14 -16 -37 -41 -51 -55
-14 -14 -33 -37 -42 -52 -19 -31 -42 -34 -144 -22 l-53 7 0 243 c0 135 4 254
10 269 5 14 20 30 32 35 14 7 121 8 283 5 226 -5 262 -8 273 -22z m4765 -97
c111 -52 247 -114 302 -139 155 -70 315 -147 315 -151 0 -3 -27 -60 -59 -128
-32 -68 -66 -139 -74 -158 -9 -19 -24 -45 -34 -58 l-19 -23 -160 74 c-87 41
-222 105 -299 142 -77 36 -188 89 -247 117 -60 28 -108 55 -108 59 0 7 72 168
134 302 15 31 32 57 37 57 5 0 101 -42 212 -94z m1014 -82 c93 -42 183 -85
200 -96 32 -19 32 -20 19 -51 -50 -117 -109 -227 -122 -227 -18 0 -158 59
-312 132 l-113 53 51 104 c54 111 86 161 101 161 5 0 84 -34 176 -76z m-5631
-78 c63 -14 215 -85 247 -114 50 -45 52 -105 3 -118 -22 -5 -35 3 -84 53 -40
41 -74 65 -108 77 -182 64 -289 38 -408 -102 -37 -42 -77 -89 -90 -104 -28
-33 -62 -37 -70 -8 -3 11 -9 29 -12 40 -4 16 13 40 78 106 133 138 203 177
320 182 36 1 92 -4 124 -12z m1731 -15 c22 -16 49 -32 61 -35 12 -4 22 -12 22
-17 0 -6 -65 -9 -175 -7 -96 1 -175 6 -175 9 0 5 116 58 160 72 36 12 70 5
107 -22z m-1743 -91 c81 -20 149 -67 191 -129 l19 -29 236 -3 c129 -1 666 -1
1192 -1 l957 1 -42 -43 c-23 -24 -52 -56 -64 -72 l-21 -29 -1092 0 -1092 0
-20 39 c-25 48 -107 130 -156 155 -104 53 -202 63 -303 31 -63 -19 -84 -31
-151 -80 -39 -29 -28 -11 36 59 51 54 100 85 162 105 63 19 58 19 148 -4z
m3630 -46 c3 -9 6 -25 6 -36 0 -19 -7 -20 -1637 -15 -901 2 -1646 8 -1656 12
-9 4 -17 15 -17 25 0 18 60 19 1632 20 898 0 1634 3 1637 5 10 10 29 4 35 -11z
m1769 -43 c104 -48 321 -153 325 -157 4 -3 -42 -104 -127 -286 -41 -87 -41
-87 -69 -76 -62 25 -378 172 -389 180 -8 6 -8 19 -1 46 14 51 156 332 167 332
6 0 48 -18 94 -39z m-1804 -78 c32 -6 33 -7 28 -46 -4 -26 -16 -50 -35 -70
l-29 -29 -189 0 c-126 -1 -189 3 -192 10 -3 10 -26 42 -83 115 l-21 28 243 -1
c134 -1 259 -4 278 -7z m-4199 -267 c0 -36 -4 -76 -10 -90 -9 -24 -14 -26 -74
-26 -52 0 -67 4 -74 18 -12 22 -25 139 -17 152 3 6 44 10 91 10 l84 0 0 -64z
m2140 53 c443 -1 828 -3 857 -6 l52 -5 -6 -63 c-13 -136 51 -276 162 -358 l40
-29 -475 6 c-261 3 -835 6 -1274 6 l-799 0 47 32 c61 40 118 112 147 185 18
46 23 78 24 152 l0 94 210 -7 c116 -4 572 -7 1015 -7z"/>
<path d="M1196 2863 l-23 -12 2 -238 c1 -230 2 -238 21 -234 10 2 65 5 120 5
l102 1 6 65 c15 158 3 212 -76 362 -30 56 -30 56 -79 60 -28 1 -60 -2 -73 -9z
m141 -134 c55 -110 77 -194 66 -252 -12 -65 -16 -67 -108 -67 l-85 0 -2 83
c-4 229 -2 323 6 335 5 7 23 12 39 10 28 -3 35 -12 84 -109z"/>
<path d="M1786 690 c-70 -21 -109 -98 -83 -162 19 -45 50 -66 134 -89 88 -25
113 -42 113 -79 0 -63 -106 -96 -153 -47 -12 13 -30 38 -39 55 -20 37 -52 42
-68 11 -16 -28 19 -98 62 -124 44 -27 168 -28 216 -2 50 27 74 72 69 131 -6
66 -41 98 -139 127 -40 12 -83 28 -95 35 -48 30 -14 94 50 94 40 0 61 -14 86
-55 21 -36 47 -45 69 -23 33 33 -12 110 -76 128 -44 12 -105 12 -146 0z"/>
<path d="M2258 690 c-18 -11 -168 -382 -168 -416 0 -25 18 -44 43 -44 13 0 26
17 44 60 l26 60 91 0 91 0 20 -51 c23 -60 46 -80 73 -63 9 6 18 21 20 33 4 28
-134 378 -161 409 -22 23 -51 28 -79 12z"/>
<path d="M3042 688 c-17 -17 -17 -419 0 -436 8 -8 56 -12 149 -12 112 0 139 3
150 16 9 11 10 20 2 32 -8 14 -30 18 -117 20 l-106 3 0 179 c0 149 -3 181 -16
194 -18 19 -45 21 -62 4z"/>
<path d="M3685 688 c-78 -27 -128 -96 -141 -194 -8 -64 15 -150 53 -195 80
-95 254 -89 320 10 37 55 27 111 -19 111 -13 0 -25 -15 -38 -44 -23 -55 -66
-81 -122 -73 -70 9 -102 58 -102 157 0 106 45 170 119 170 38 0 83 -26 99 -58
22 -44 41 -55 65 -42 35 18 28 66 -17 110 -54 55 -142 74 -217 48z"/>
<path d="M4145 685 c-51 -18 -110 -81 -124 -131 -48 -173 49 -324 209 -324
132 0 220 96 220 240 0 168 -146 271 -305 215z m151 -74 c87 -53 82 -242 -6
-295 -91 -53 -189 22 -190 146 0 132 100 208 196 149z"/>
<path d="M4539 679 c-7 -14 -10 -75 -7 -177 3 -177 14 -209 78 -247 51 -29
187 -29 226 1 65 48 69 61 72 239 3 107 0 170 -8 184 -12 23 -54 29 -67 9 -4
-7 -10 -87 -13 -176 l-5 -164 -28 -24 c-38 -33 -96 -33 -134 0 l-28 24 -3 163
c-2 95 -8 169 -14 176 -16 20 -56 15 -69 -8z"/>
<path d="M5022 688 c-17 -17 -17 -419 0 -436 8 -8 56 -12 149 -12 112 0 139 3
150 16 9 11 10 20 2 32 -8 14 -30 18 -117 20 l-106 3 0 179 c0 149 -3 181 -16
194 -18 19 -45 21 -62 4z"/>
<path d="M5402 688 c-9 -9 -12 -71 -12 -218 0 -147 3 -209 12 -218 8 -8 56
-12 149 -12 112 0 139 3 150 16 9 11 10 20 2 32 -8 14 -30 18 -117 20 l-106 3
0 179 c0 149 -3 181 -16 194 -18 19 -45 21 -62 4z"/>
<path d="M2588 680 c-16 -10 -18 -32 -18 -218 0 -215 3 -232 41 -232 38 0 49
27 49 121 l0 89 31 0 c49 0 65 -15 121 -111 36 -61 60 -92 75 -96 26 -6 53 11
53 34 0 23 -48 110 -81 148 l-31 35 26 10 c45 17 76 58 76 101 0 49 -16 84
-49 106 -21 14 -52 18 -151 21 -77 1 -132 -2 -142 -8z m230 -76 c14 -10 22
-26 22 -44 0 -43 -31 -60 -112 -60 l-68 0 0 60 0 60 68 0 c45 0 75 -5 90 -16z"/>
<path d="M5786 674 c-13 -13 -16 -46 -16 -209 0 -163 3 -196 16 -209 13 -13
42 -16 164 -16 133 0 150 2 159 18 6 11 6 24 0 35 -9 15 -27 17 -129 17 l-120
0 0 65 0 65 103 0 c105 0 127 7 127 41 0 25 -20 29 -131 29 l-99 0 0 55 0 54
116 3 c96 2 119 6 127 20 8 12 7 21 -2 32 -20 23 -292 24 -315 0z"/>
<path d="M6151 672 c-19 -36 4 -52 74 -52 l65 0 0 -176 c0 -102 4 -183 10
-195 14 -25 56 -25 70 0 6 12 10 93 10 195 l0 176 64 0 c73 0 95 14 76 49 -10
20 -19 21 -185 21 -157 0 -175 -2 -184 -18z"/>
</g>
</svg>
